<svg width="16" height="16" viewBox="0 0 16 16" fill="none" xmlns="http://www.w3.org/2000/svg">
                                            <circle cx="8" cy="8" r="7.25" stroke="black" stroke-width="1.5"/>
                                            <mask id="path-2-inside-1_194_19" fill="white">
                                            <path fill-rule="evenodd" clip-rule="evenodd" d="M1.82861 13.0909C3.29595 11.2031 5.51573 10 7.99999 10C10.4843 10 12.7041 11.2031 14.1714 13.0909C12.7041 14.8677 10.4843 16 8.00004 16C5.51575 16 3.29595 14.8676 1.82861 13.0909Z"/>
                                            </mask>
                                            <path d="M1.82861 13.0909L1.03907 12.4772L0.547327 13.1098L1.05756 13.7277L1.82861 13.0909ZM14.1714 13.0909L14.9425 13.7277L15.4527 13.1099L14.961 12.4773L14.1714 13.0909ZM2.61815 13.7046C3.9127 12.0391 5.85059 11 7.99999 11V9C5.18087 9 2.6792 10.3671 1.03907 12.4772L2.61815 13.7046ZM7.99999 11C10.1494 11 12.0873 12.0391 13.3819 13.7046L14.961 12.4773C13.3208 10.3672 10.8191 9 7.99999 9V11ZM13.4004 12.4542C12.1149 14.0107 10.1734 15 8.00004 15V17C10.7952 17 13.2933 15.7246 14.9425 13.7277L13.4004 12.4542ZM8.00004 15C5.82665 15 3.88517 14.0107 2.59966 12.4541L1.05756 13.7277C2.70672 15.7246 5.20486 17 8.00004 17V15Z" fill="black" mask="url(#path-2-inside-1_194_19)"/>
                                            <circle cx="8" cy="6" r="2.5" stroke="black"/>
</svg>