<svg width="15" height="18" viewBox="0 0 15 18" fill="none" xmlns="http://www.w3.org/2000/svg">
                                        <mask id="path-1-inside-1_195_13" fill="white">
                                        <path d="M5.83337 0H12C13.6569 0 15 1.34315 15 3V15C15 16.6569 13.6569 18 12 18H5.83337V0Z"/>
                                        </mask>
                                        <path d="M5.83337 -1H12C14.2092 -1 16 0.790861 16 3H14C14 1.89543 13.1046 1 12 1H5.83337V-1ZM16 15C16 17.2091 14.2092 19 12 19H5.83337V17H12C13.1046 17 14 16.1046 14 15H16ZM5.83337 18V0V18ZM12 -1C14.2092 -1 16 0.790861 16 3V15C16 17.2091 14.2092 19 12 19V17C13.1046 17 14 16.1046 14 15V3C14 1.89543 13.1046 1 12 1V-1Z" fill="#4282C4" mask="url(#path-1-inside-1_195_13)"/>
                                        <path d="M0.521397 5.76087C0.772159 2.84412 3.19629 0.548375 6.16667 0.500755V5.76087H0.521397Z" fill="#4282C4" stroke="#4282C4"/>
                                        <mask id="path-4-inside-2_195_13" fill="white">
                                        <path d="M0 6.26086H5.83333V18H2C0.895432 18 0 17.1046 0 16V6.26086Z"/>
                                        </mask>
                                        <path d="M0 6.26086H5.83333H0ZM5.83333 19H2C0.343146 19 -1 17.6568 -1 16H1C1 16.5523 1.44772 17 2 17H5.83333V19ZM2 19C0.343146 19 -1 17.6568 -1 16V6.26086H1V16C1 16.5523 1.44772 17 2 17V19ZM5.83333 6.26086V18V6.26086Z" fill="#4282C4" mask="url(#path-4-inside-2_195_13)"/>
</svg>